<?xml version="1.0" encoding="UTF-8" standalone="no"?>
<!-- Created with Inkscape (http://www.inkscape.org/) -->

<svg
   version="1.1"
   id="svg1"
   width="166.64236"
   height="185.62927"
   viewBox="0 0 166.64236 185.62927"
   xmlns="http://www.w3.org/2000/svg"
   xmlns:svg="http://www.w3.org/2000/svg">
  <defs
     id="defs1" />
  <g
     id="g1"
     transform="translate(-11,-5.2604861)">
    <path
       style="fill:#ef3d3d;fill-opacity:1"
       d="m 144,188.01442 c -33.09617,-4.2486 -41.60406,-6.3712 -51.690443,-12.896 -9.617504,-6.22149 -20.642563,-20.41883 -22.868991,-29.44918 -0.966991,-3.9221 -2.213518,-4.10184 -8.663768,-1.24923 -18.60171,8.22655 -34.873834,7.20237 -45.371014,-2.85569 C 11.22397,137.55744 11,137.05783 11,131.73652 c 0,-14.8143 7.967443,-20.3916 27.878792,-19.51545 8.926319,0.39278 12.296755,1.05455 21.121208,4.14706 5.775,2.02384 11.137816,3.78145 11.917368,3.90579 0.867775,0.13842 4.636444,-5.2025 9.71918,-13.77392 l 8.301811,-14 -7.246789,-1.143659 C 65.735454,88.680394 56.43644,80.944624 54.589957,67.978849 52.922959,56.273397 60.334238,36.15358 70.263626,25.428655 76.513564,18.677977 87.938854,11.684092 99.760183,7.3726127 106.8698,4.7795918 107.24073,4.7443709 110.59484,6.3438355 c 1.91016,0.9108905 4.69525,1.661117 6.18909,1.6671702 1.49384,0.00605 4.49534,0.3048246 6.67001,0.6639367 3.88055,0.6408127 3.78775,0.6967597 -5,3.0143946 C 101.66903,16.1161 87.912122,24.118756 76.378537,36.165404 69.365204,43.490721 65.754932,49.97775 64.021262,58.36927 62.530624,65.58444 63.385956,72.169917 66.515106,77.570184 70.529514,84.498221 80.210504,89.573042 88,88.832667 91.412548,88.508312 91.670912,88.162683 98.340203,75 109.68321,52.613145 123.6438,32.919842 136.27212,21.491868 151.50381,7.7079734 169.39846,5.0200736 174.84584,15.697827 c 3.01026,5.900599 3.5788,12.096031 1.76112,19.191145 -2.08341,8.132324 -6.79854,15.292391 -16.09227,24.436581 -9.58914,9.434849 -19.87856,16.62726 -33.97775,23.750796 L 115.5,88.652698 109.68836,99.569226 c -6.41572,12.051224 -15.06537,24.170974 -19.691198,27.590994 -3.657769,2.70431 -3.689836,3.77963 -0.388565,13.03018 3.888694,10.89658 9.204151,20.46445 14.075213,25.33551 7.3063,7.3063 29.62921,14.65717 60.42396,19.89743 3.18961,0.54276 3.55279,0.90152 3.13342,3.09529 -0.26089,1.36475 -0.75938,2.43061 -1.10777,2.36857 C 165.78504,190.82517 155.825,189.53241 144,188.01442 Z M 52.194533,139.76848 c 10.051736,-4.60184 10.070102,-9.88103 0.05071,-14.57515 -5.222505,-2.44675 -6.822086,-2.69173 -17.580628,-2.69249 -11.728411,-8.3e-4 -11.857216,0.0245 -14.25,2.80492 -2.7334,3.1762 -3.279309,9.9719 -1.03812,12.92297 2.99746,3.94687 6.666438,4.91065 17.153862,4.50601 8.115156,-0.31311 11.106075,-0.87949 15.664181,-2.96626 z M 127.4326,77.911142 c 11.90041,-6.127716 19.25685,-11.417885 27.56763,-19.824459 8.73756,-8.838279 13.48284,-17.091444 15.56294,-27.067626 3.29274,-15.792095 -1.8849,-22.4303653 -13.21645,-16.944853 -9.40775,4.554212 -25.16488,29.063596 -35.71307,55.54978 -3.57284,8.971304 -4.36677,12.378084 -2.88365,12.3739 0.4125,-0.0012 4.31967,-1.840197 8.6826,-4.086742 z"
       id="path1" />
  </g>
</svg>
